<?xml version="1.0" encoding="UTF-8"?>
<svg xmlns="http://www.w3.org/2000/svg" baseProfile="tiny" version="1.2" viewBox="0 0 256 256">
  <!-- Generator: Adobe Illustrator 28.7.1, SVG Export Plug-In . SVG Version: 1.2.0 Build 142)  -->
  <g>
    <g id="_レイヤー_1" data-name="レイヤー_1">
      <path d="M136.1,23.6h-20.1v-4.2c0-3.9-3.2-7.1-7.1-7.1s-7.1,3.2-7.1,7.1v4.2h-16.9v-4.2c0-3.9-3.2-7.1-7.1-7.1s-7.1,3.2-7.1,7.1v4.2h-16.9v-4.2c0-3.9-3.2-7.1-7.1-7.1s-7.1,3.2-7.1,7.1v4.2h-15.6c-7.5,0-13.7,6.1-13.7,13.7v111.9c0,7.5,6.1,13.7,13.7,13.7h111.9c7.5,0,13.7-6.1,13.7-13.7V37.3c0-7.5-6.1-13.7-13.7-13.7ZM39.8,37.7v3.9c0,3.7,2.7,7,6.4,7.3s7.8-2.9,7.8-7v-4.2h16.9v3.9c0,3.7,2.7,7,6.4,7.3s7.8-2.9,7.8-7v-4.2h16.9v3.9c0,3.7,2.7,7,6.4,7.3s7.8-2.9,7.8-7v-4.2h17.3c1.3,0,2.3,1,2.3,2.3v25.8c0,1.3-1,2.3-2.3,2.3H26.9c-1.3,0-2.3-1-2.3-2.3v-25.8c0-1.3,1-2.3,2.3-2.3h12.9ZM24.6,146.5v-61.9c0-1.3,1-2.3,2.3-2.3h106.4c1.3,0,2.3,1,2.3,2.3v61.9c0,1.3-1,2.3-2.3,2.3H26.9c-1.3,0-2.3-1-2.3-2.3Z" fill="#a1a1aa"/>
      <path d="M231.9,104.3h-20.1v-4.2c0-3.9-3.2-7.1-7.1-7.1s-7.1,3.2-7.1,7.1v4.2h-16.9v-4.2c0-3.9-3.2-7.1-7.1-7.1s-7.1,3.2-7.1,7.1v4.2h-16.9v-4.2c0-3.9-3.2-7.1-7.1-7.1s-7.1,3.2-7.1,7.1v4.2h-15.6c-7.5,0-13.7,6.1-13.7,13.7v111.9c0,7.5,6.1,13.7,13.7,13.7h111.9c7.5,0,13.7-6.1,13.7-13.7v-111.9c0-7.5-6.1-13.7-13.7-13.7ZM135.6,118.5v3.9c0,3.7,2.7,7,6.4,7.3,4.2.4,7.8-2.9,7.8-7v-4.2h16.9v3.9c0,3.7,2.7,7,6.4,7.3s7.8-2.9,7.8-7v-4.2h16.9v3.9c0,3.7,2.7,7,6.4,7.3,4.2.4,7.8-2.9,7.8-7v-4.2h17.3c1.3,0,2.3,1,2.3,2.3v25.8c0,1.3-1,2.3-2.3,2.3h-106.4c-1.3,0-2.3-1-2.3-2.3v-25.8c0-1.3,1-2.3,2.3-2.3h12.9ZM120.4,227.2v-61.9c0-1.3,1-2.3,2.3-2.3h106.4c1.3,0,2.3,1,2.3,2.3v61.9c0,1.3-1,2.3-2.3,2.3h-106.4c-1.3,0-2.3-1-2.3-2.3Z" fill="#22c55e"/>
    </g>
  </g>
</svg>